<?xml version="1.0" encoding="utf-8"?>
<!-- Generator: Adobe Illustrator 25.1.0, SVG Export Plug-In . SVG Version: 6.00 Build 0)  -->
<svg version="1.1" id="Layer_1" xmlns="http://www.w3.org/2000/svg" xmlns:xlink="http://www.w3.org/1999/xlink" x="0px" y="0px"
	 viewBox="0 0 371.5 302.4" style="enable-background:new 0 0 371.5 302.4;" xml:space="preserve">
<g>
	<path d="M0,47.2C0,20.3,14.5,7.9,42.2,7.9h15.3c28.5,0,42.2,12.4,42.2,39.3v215.9c0,26.9-14.1,39.3-42.2,39.3H42.2
		C13.7,302.4,0,290,0,263.1V47.2z M23.6,264.7c0,23.2,6.6,31.4,23.2,31.4h6.2c16.5,0,23.2-8.3,23.2-31.4V45.5
		c0-23.2-6.6-31.4-23.2-31.4h-6.2c-16.5,0-23.2,8.3-23.2,31.4V264.7z"/>
	<path d="M146,7.4h22.3v292.5H146V7.4z"/>
	<path d="M213,94.7c0-21.9,13.2-32.7,38.5-32.7h7c26.9,0,38.5,10.8,38.5,32.7v205.2h-22.8v-18.2c-9.5,12-19.9,20.7-35.2,20.7
		c-18.6,0-26.9-9.5-26.9-28.1v-60.4c0-18.2,7.9-27.3,27.3-35.6l34.7-14.1V91.8c0-16.1-5.4-24.4-19-24.4h-0.8
		c-13.7,0-19.4,8.3-19.4,24.4v60.8H213V94.7z M234.1,272.6c0,13.7,2.9,20.3,12.4,20.3c10.3,0,19.4-8.3,27.7-19.4V170.8l-25.6,10.8
		c-12,5-14.5,11.2-14.5,28.1V272.6z M260.6,41.4h-21.9L266.8,0H290L260.6,41.4z"/>
	<path d="M338.8,285c0-9.5,6.6-16.5,16.1-16.5c9.5,0,16.5,7,16.5,16.5c0,8.7-7,16.1-16.5,16.1C345.4,301.1,338.8,293.7,338.8,285z
		 M342.5,10.3h24.8L362,244.5h-14.1L342.5,10.3z"/>
</g>
</svg>
