<?xml version="1.0" encoding="utf-8"?>
<!-- Generator: Adobe Illustrator 25.1.0, SVG Export Plug-In . SVG Version: 6.00 Build 0)  -->
<svg version="1.1" id="Layer_1" xmlns="http://www.w3.org/2000/svg" xmlns:xlink="http://www.w3.org/1999/xlink" x="0px" y="0px"
	 viewBox="0 0 1080 1080" style="enable-background:new 0 0 1080 1080;" xml:space="preserve">
<style type="text/css">
	.st0{fill:#6B7A90;}
</style>
<g>
	<path class="st0" d="M540,97.3c144.2,0,161.3,0.6,218.2,3.2c52.7,2.4,81.2,11.2,100.3,18.6c25.2,9.8,43.2,21.5,62.1,40.4
		c18.9,18.9,30.6,36.9,40.4,62.1c7.4,19,16.2,47.6,18.6,100.3c2.6,56.9,3.2,74,3.2,218.2s-0.5,161.3-3.2,218.2
		c-2.4,52.7-11.2,81.2-18.6,100.3c-9.8,25.2-21.5,43.2-40.4,62.1c-18.9,18.9-36.9,30.6-62.1,40.4c-19,7.4-47.6,16.2-100.3,18.6
		c-56.9,2.6-74,3.2-218.2,3.2s-161.3-0.5-218.2-3.2c-52.6-2.4-81.2-11.2-100.3-18.6c-25.2-9.8-43.2-21.5-62.1-40.4
		c-18.9-18.9-30.6-36.9-40.4-62.1c-7.4-19-16.2-47.6-18.6-100.3c-2.6-56.9-3.2-74-3.2-218.2s0.6-161.3,3.2-218.2
		c2.4-52.6,11.2-81.2,18.6-100.3c9.8-25.2,21.5-43.2,40.4-62.1s36.9-30.6,62.1-40.4c19-7.4,47.6-16.2,100.3-18.6
		C378.7,97.8,395.8,97.3,540,97.3 M540,0C393.3,0,375,0.6,317.4,3.2C259.9,5.9,220.6,15,186.3,28.4c-35.5,13.8-65.6,32.3-95.6,62.3
		s-48.5,60.1-62.3,95.6C15,220.6,5.9,259.9,3.2,317.4C0.6,375,0,393.3,0,540s0.6,165,3.2,222.6c2.6,57.5,11.8,96.7,25.1,131.1
		c13.8,35.5,32.3,65.6,62.3,95.6s60.1,48.5,95.6,62.3c34.4,13.3,73.6,22.5,131.1,25.1c57.6,2.6,76,3.2,222.6,3.2s165-0.6,222.6-3.2
		c57.5-2.6,96.7-11.8,131.1-25.1c35.5-13.8,65.6-32.3,95.6-62.3s48.5-60.1,62.3-95.6c13.3-34.3,22.5-73.6,25.1-131.1
		c2.6-57.6,3.2-76,3.2-222.6s-0.6-165-3.2-222.6c-2.6-57.5-11.8-96.7-25.1-131.1c-13.8-35.5-32.3-65.6-62.3-95.6
		s-60.1-48.5-95.6-62.3C859.4,15,820.1,5.9,762.6,3.2C705,0.6,686.7,0,540,0z M540,262.7c-153.1,0-277.3,124.1-277.3,277.3
		S386.9,817.3,540,817.3S817.3,693.2,817.3,540S693.2,262.7,540,262.7z M540,720c-99.4,0-180-80.6-180-180s80.6-180,180-180
		s180,80.6,180,180S639.4,720,540,720z M893,251.8c0,35.8-29,64.8-64.8,64.8s-64.8-29-64.8-64.8s29-64.8,64.8-64.8
		C864,186.9,893,216,893,251.8z"/>
</g>
</svg>
