<svg id="Layer_1" data-name="Layer 1" xmlns="http://www.w3.org/2000/svg" viewBox="0 0 960.36 248.38"><defs><style>.cls-1{fill:#fff;}</style></defs><polygon class="cls-1" points="56.17 228.85 54.43 228.85 27.56 2.09 0 2.09 0 246.29 7.68 246.29 7.68 12.56 9.42 12.56 38.38 246.29 61.4 246.29 88.26 12.56 90 12.56 90 246.29 109.89 246.29 109.89 2.09 81.98 2.09 56.17 228.85"/><path class="cls-1" d="M228.28,216.64c0,19.53-5.58,26.51-19.53,26.51h-5.24c-13.95,0-19.54-7-19.54-26.51V31.74c0-19.53,5.59-26.51,19.54-26.51h5.24c13.95,0,19.53,7,19.53,26.51ZM212.58,0H199.67c-23.37,0-35.58,10.46-35.58,33.15V215.24c0,22.68,11.51,33.14,35.58,33.14h12.91c23.72,0,35.58-10.46,35.58-33.14V33.15C248.16,10.46,236.65,0,212.58,0"/><path class="cls-1" d="M361.82,214.54c0,17.8-3.49,26.17-21.28,26.17H322.05V124.89h20.57c14.31,0,19.2,7.32,19.2,24.41ZM322.05,7.67h17.79c18.14,0,21.62,8.38,21.62,26.17V95.58c0,16.4-4.88,23.72-19.18,23.72H322.05Zm31.74,114.08c19.88-2.45,27.21-13.25,27.21-29V34.54c0-22.68-9.42-32.45-35.58-32.45H302.16v244.2h43.95c24.77,0,35.59-9.77,35.59-32.44v-62.8c0-16.39-6.63-27.56-27.91-29.3"/><rect class="cls-1" x="435.69" y="2.09" width="19.54" height="244.19"/><polygon class="cls-1" points="530.22 2.09 510.33 2.09 510.33 246.29 569.29 246.29 569.29 240.36 530.22 240.36 530.22 2.09"/><path class="cls-1" d="M630.16,183.5,649.69,10.12h1.4L669.92,183.5ZM643.41,1.74l-28.6,244.9h8l6.63-57.22h40.82l6.28,57.22h20.23L669.58,1.74Z"/><path class="cls-1" d="M809.74,214.19c0,18.15-3.84,26.52-22,26.52H767.52V7.67h20.24c18.14,0,22,8.37,22,26.52ZM793,2.09H747.64v244.2H793c26.17,0,36.63-10.12,36.63-33.84V35.93c0-23.72-9.77-33.84-36.63-33.84"/><path class="cls-1" d="M893.73,183.5,913.26,10.12h1.4L933.5,183.5ZM907,1.74l-28.6,244.9h8L893,189.42h40.82l6.28,57.22h20.23L933.15,1.74Z"/></svg>